<svg width="453" height="421" viewBox="0 0 453 421" fill="none" xmlns="http://www.w3.org/2000/svg">
<path d="M291.045 139.844C350.813 194.349 397.686 251.601 425.158 300.089C438.895 324.336 447.767 346.366 450.988 364.749C454.21 383.141 451.764 397.789 443.001 407.398C434.238 417.006 419.878 420.789 401.267 419.271C382.665 417.753 359.913 410.944 334.506 399.493C283.698 376.594 222.381 335.182 162.613 280.677C102.845 226.172 55.9722 168.92 28.5001 120.432C14.7627 96.1852 5.89085 74.1551 2.66994 55.7715C-0.552442 37.3795 1.8944 22.7317 10.657 13.123C19.4196 3.51438 33.7805 -0.268446 52.3908 1.24982C70.9926 2.7674 93.7449 9.57679 119.152 21.0275C169.96 43.9265 231.277 85.3383 291.045 139.844Z" stroke="white"/>
</svg>
