<svg width="30" height="30" viewBox="0 0 30 30" fill="none" xmlns="http://www.w3.org/2000/svg">
<path d="M6.28006 23.6524V19.7591C6.28006 18.4658 7.2934 17.3058 8.7334 17.3058C10.0267 17.3058 11.1867 18.3191 11.1867 19.7591V23.5058C11.1867 26.1058 9.02673 28.2658 6.42673 28.2658C3.82673 28.2658 1.66673 26.0924 1.66673 23.5058V15.2924C1.52006 7.79909 7.44006 1.73242 14.9334 1.73242C22.4267 1.73242 28.3334 7.79909 28.3334 15.1458V23.3591C28.3334 25.9591 26.1734 28.1191 23.5734 28.1191C20.9734 28.1191 18.8134 25.9591 18.8134 23.3591V19.6124C18.8134 18.3191 19.8267 17.1591 21.2667 17.1591C22.5601 17.1591 23.7201 18.1724 23.7201 19.6124V23.6524" stroke="#292D32" stroke-width="1.5" stroke-linecap="round" stroke-linejoin="round"/>
</svg>
