<svg width="479" height="282" viewBox="0 0 479 282" fill="none" xmlns="http://www.w3.org/2000/svg">
<g filter="url(#filter0_d_1585_1547)">
<rect x="80" y="40" width="319" height="122" rx="24" fill="white"/>
</g>
<g clip-path="url(#clip0_1585_1547)">
<path d="M353.658 72C346.27 72 340.312 77.9677 340.312 85.3677C340.312 92.7677 346.27 98.7355 353.658 98.7355C361.046 98.7355 367.004 92.7677 367.004 85.3677C367.004 77.729 361.046 72 353.658 72Z" fill="url(#paint0_linear_1585_1547)"/>
<path d="M354.371 102.555C353.894 104.226 353.656 105.659 353.179 106.613L352.941 107.091C352.703 108.284 351.75 109 350.558 109H349.843C349.366 109 348.89 108.762 348.413 108.284C348.175 107.807 347.936 107.33 347.936 106.852L348.651 102.078C348.651 101.839 348.89 101.362 349.128 101.123C342.217 99.4521 337.212 93.2456 337.212 85.8456C337.212 84.6521 337.45 83.6973 337.45 82.5037H317.908C316.717 82.5037 315.764 81.7876 315.525 80.594L314.572 76.536C314.095 75.1037 312.904 73.9102 311.236 73.9102H305.516C304.324 73.9102 303.609 74.865 303.609 75.8198C303.609 77.0134 304.563 77.7295 305.516 77.7295H308.614C309.806 77.7295 310.759 78.4456 310.997 79.6392L318.623 110.671C319.1 112.104 320.292 113.297 321.96 113.297H353.179C354.848 113.297 356.039 112.342 356.516 110.671L359.137 100.168C357.469 100.884 355.801 101.123 354.133 101.362C354.609 102.078 354.609 102.317 354.371 102.555ZM319.338 93.9618C319.1 92.7682 318.623 91.5747 318.385 90.6198L318.147 89.665C317.908 89.1876 318.147 88.7102 318.385 88.2327C318.623 87.7553 319.338 87.5166 319.815 87.5166H321.96C323.151 87.5166 324.105 88.2327 324.105 89.4263L324.82 93.7231C324.82 94.2005 324.82 94.6779 324.343 95.1553C324.105 95.6327 323.39 95.8714 322.913 95.8714H321.722C320.53 95.6327 319.577 94.9166 319.338 93.9618ZM326.726 108.284C326.488 108.762 325.773 109 325.296 109H325.058C323.866 109 322.913 108.284 322.675 107.091L322.436 106.613C322.198 105.42 321.722 103.988 321.245 102.317C321.007 101.839 321.245 101.362 321.483 100.884C321.722 100.407 322.436 100.168 322.913 100.168H324.105C325.296 100.168 326.25 100.884 326.488 102.078L327.203 106.852C327.203 107.33 327.203 108.046 326.726 108.284ZM335.544 107.33C335.544 108.284 334.829 109 333.876 109C332.922 109 331.969 108.284 331.969 107.33L331.254 102.317C331.254 101.839 331.254 101.362 331.731 100.884C331.969 100.407 332.684 100.168 333.161 100.168H333.876C335.067 100.168 336.021 101.123 336.021 102.317V107.33H335.544ZM335.544 93.7231C335.544 94.9166 334.591 95.8714 333.399 95.8714H331.731C330.539 95.8714 329.586 95.1553 329.348 93.9618L328.871 89.4263C328.871 88.9489 328.871 88.4714 329.348 87.994C329.824 87.5166 330.301 87.2779 330.778 87.2779H333.637C334.829 87.2779 335.544 88.2327 335.544 89.4263V93.7231ZM344.6 102.317L343.885 107.33C343.647 108.284 342.932 109 341.979 109C341.025 109 340.31 108.284 340.31 107.33V102.317C340.31 101.123 341.264 100.168 342.455 100.168H343.17C343.647 100.168 344.123 100.407 344.6 100.884C344.6 101.362 344.6 101.839 344.6 102.317Z" fill="url(#paint1_linear_1585_1547)"/>
<path d="M353.654 73.9102L356.99 80.594L364.617 81.7876L359.135 87.0392L360.327 94.4392L353.654 91.0973L346.981 94.4392L348.173 87.0392L342.93 81.7876L350.318 80.594L353.654 73.9102Z" fill="white"/>
<path d="M324.102 128.574C327.261 128.574 329.822 125.902 329.822 122.606C329.822 119.311 327.261 116.639 324.102 116.639C320.944 116.639 318.383 119.311 318.383 122.606C318.383 125.902 320.944 128.574 324.102 128.574Z" fill="url(#paint2_linear_1585_1547)"/>
<path d="M351.751 128.574C354.91 128.574 357.47 125.902 357.47 122.606C357.47 119.311 354.91 116.639 351.751 116.639C348.592 116.639 346.031 119.311 346.031 122.606C346.031 125.902 348.592 128.574 351.751 128.574Z" fill="url(#paint3_linear_1585_1547)"/>
<path d="M176.822 116.876C174.2 118.786 170.149 119.502 164.668 119.502H156.803C155.612 119.502 154.658 119.502 153.228 119.502C152.037 119.502 150.845 119.263 149.654 119.025C148.462 118.786 147.271 118.309 146.317 118.07C145.126 117.592 144.172 116.876 143.457 116.16C142.742 115.444 142.028 114.251 141.551 113.057C141.074 111.863 140.836 110.431 140.836 108.521V81.3086H147.985V108.283C147.985 111.147 150.607 112.58 156.088 112.58H165.859C171.102 112.58 173.724 111.147 173.724 108.283V81.3086H180.873V108.76C180.635 112.341 179.443 115.205 176.822 116.876Z" fill="#0F0E0E"/>
<path d="M234.734 119.98V94.9155L219.243 117.832C218.766 118.548 218.051 119.264 217.337 119.741C216.622 120.219 215.907 120.457 214.953 120.457C213.285 120.457 211.855 119.741 210.664 118.07L195.173 94.6768V119.98H188.023V85.3671C188.023 83.9348 188.5 82.98 189.215 82.2639C189.93 81.5477 190.883 81.0703 192.075 81.0703C193.743 81.0703 195.173 81.7864 196.126 82.98L215.43 110.67L234.495 83.2187C235.449 81.7864 236.64 81.0703 238.308 81.0703C239.5 81.0703 240.453 81.5477 241.168 82.2639C241.883 82.98 242.36 84.1735 242.36 85.6058V119.741H234.734V119.98Z" fill="#0F0E0E"/>
<path d="M249.031 119.741V81.3086H256.181V119.741H249.031Z" fill="#0F0E0E"/>
<path d="M304.8 119.98L298.842 109.476H276.44L270.72 119.98H262.141L283.589 83.9344C284.542 82.2634 285.972 81.3086 287.641 81.3086C289.309 81.3086 290.739 82.2634 291.692 83.9344L312.664 119.98H304.8ZM287.641 90.857L280.729 102.315H294.552L287.641 90.857Z" fill="#0F0E0E"/>
<path d="M133.687 102.554C133.687 114.251 129.397 119.263 121.771 120.934C114.383 122.367 112 122.367 112 122.367V114.489C114.86 114.251 119.388 113.773 122.248 112.818C124.869 111.863 126.776 109.238 126.776 102.554L127.014 88.4699V81.3086H134.164L133.687 102.554Z" fill="#0F0E0E"/>
</g>
<defs>
<filter id="filter0_d_1585_1547" x="0" y="0" width="479" height="282" filterUnits="userSpaceOnUse" color-interpolation-filters="sRGB">
<feFlood flood-opacity="0" result="BackgroundImageFix"/>
<feColorMatrix in="SourceAlpha" type="matrix" values="0 0 0 0 0 0 0 0 0 0 0 0 0 0 0 0 0 0 127 0" result="hardAlpha"/>
<feOffset dy="40"/>
<feGaussianBlur stdDeviation="40"/>
<feComposite in2="hardAlpha" operator="out"/>
<feColorMatrix type="matrix" values="0 0 0 0 0.641667 0 0 0 0 0.641667 0 0 0 0 0.641667 0 0 0 0.17 0"/>
<feBlend mode="normal" in2="BackgroundImageFix" result="effect1_dropShadow_1585_1547"/>
<feBlend mode="normal" in="SourceGraphic" in2="effect1_dropShadow_1585_1547" result="shape"/>
</filter>
<linearGradient id="paint0_linear_1585_1547" x1="340.418" y1="85.2002" x2="367.004" y2="85.2002" gradientUnits="userSpaceOnUse">
<stop stop-color="#EB712A"/>
<stop offset="0.2311" stop-color="#EF8528"/>
<stop offset="0.4715" stop-color="#F29426"/>
<stop offset="0.6242" stop-color="#F39A24"/>
</linearGradient>
<linearGradient id="paint1_linear_1585_1547" x1="303.808" y1="93.9322" x2="359.528" y2="93.9322" gradientUnits="userSpaceOnUse">
<stop stop-color="#343434"/>
<stop offset="0.5455" stop-color="#696968"/>
<stop offset="1" stop-color="#696968"/>
</linearGradient>
<linearGradient id="paint2_linear_1585_1547" x1="318.397" y1="122.618" x2="329.866" y2="122.618" gradientUnits="userSpaceOnUse">
<stop stop-color="#343434"/>
<stop offset="0.5455" stop-color="#696968"/>
<stop offset="1" stop-color="#696968"/>
</linearGradient>
<linearGradient id="paint3_linear_1585_1547" x1="345.954" y1="122.618" x2="357.417" y2="122.618" gradientUnits="userSpaceOnUse">
<stop stop-color="#343434"/>
<stop offset="0.5455" stop-color="#696968"/>
<stop offset="1" stop-color="#696968"/>
</linearGradient>
<clipPath id="clip0_1585_1547">
<rect width="255" height="74" fill="white" transform="translate(112 64)"/>
</clipPath>
</defs>
</svg>
