<svg width="429" height="282" viewBox="0 0 429 282" fill="none" xmlns="http://www.w3.org/2000/svg">
<g filter="url(#filter0_d_1585_1532)">
<rect x="80" y="40" width="319" height="122" rx="24" fill="white"/>
</g>
<path d="M177.392 111.02V125.372H165.438V77.7715H177.392V101.911H182.745L190.365 89.1568H202.89L192.643 106.578L202.897 125.372H190.365L182.51 111.025L177.392 111.02Z" fill="#ED017F"/>
<path d="M239.677 115.118L239.562 99.5193V97.6974C239.108 92.2315 234.212 88.2474 228.632 88.7035H213.046C212.409 88.6405 211.768 88.6405 211.131 88.7035C209.835 88.827 208.575 89.2048 207.425 89.8154C206.275 90.426 205.257 91.2573 204.428 92.2619C203.6 93.2664 202.977 94.4245 202.597 95.6698C202.216 96.9151 202.085 98.2232 202.21 99.5193V116.94C202.666 122.406 207.563 126.39 213.028 125.937H230.668C236.147 125.48 240.131 120.584 239.677 115.118ZM227.833 114.549C227.815 114.873 227.725 115.19 227.571 115.477C227.417 115.764 227.203 116.013 226.942 116.209C226.682 116.404 226.382 116.54 226.064 116.608C225.746 116.675 225.416 116.673 225.099 116.6H216.221C214.855 116.484 214.057 115.34 214.173 113.979V99.8671C214.234 99.2336 214.545 98.6503 215.035 98.2447C215.526 97.8391 216.157 97.6441 216.791 97.7024H225.671C226.931 97.8158 227.836 99.0683 227.72 100.437H227.836L227.833 114.549Z" fill="#ED017F"/>
<path d="M263.129 98.3806C260.339 98.3717 257.568 98.8334 254.931 99.7464V125.138H242.977V89.1574H253.452L254.135 92.5745C256.297 91.3145 258.462 90.183 260.74 89.6135C262.597 88.9344 264.559 88.5872 266.536 88.5879H269.497C270.762 88.4993 272.032 88.6624 273.233 89.0677C274.435 89.4729 275.544 90.1123 276.497 90.9489C277.449 91.7855 278.227 92.8026 278.784 93.9416C279.342 95.0805 279.668 96.3186 279.743 97.5843V125.372H268.025V100.777C267.978 100.127 267.693 99.5167 267.224 99.0635C266.761 98.6287 266.151 98.3847 265.515 98.3806H263.129Z" fill="#ED017F"/>
<path d="M318.236 127.301V89.1562H291.251C288.622 89.4441 286.209 90.7485 284.528 92.791C282.847 94.8335 282.031 97.4522 282.255 100.088V114.89C282.427 117.44 283.601 119.818 285.522 121.504C287.443 123.189 289.953 124.045 292.504 123.884H294.895C298.879 123.884 302.75 123.315 306.508 122.519L306.281 125.936C306.276 126.57 306.032 127.179 305.598 127.642C305.124 128.06 304.521 128.301 303.889 128.325C299.449 128.325 292.844 128.098 284.19 127.415V136.182C292.161 136.978 300.019 137.548 307.989 137.548H309.249C314.597 137.094 318.578 132.538 318.236 127.301ZM306.508 114.094C303.799 114.555 301.057 114.787 298.31 114.787V114.671H296.601C296.295 114.666 295.992 114.6 295.711 114.476C295.431 114.353 295.177 114.175 294.966 113.953C294.755 113.73 294.59 113.468 294.482 113.181C294.373 112.894 294.323 112.589 294.333 112.282V100.423C294.447 99.0548 295.699 98.2585 297.065 98.3719H306.515L306.508 114.094Z" fill="#ED017F"/>
<path d="M346.705 88.58C339.19 88.6959 331.789 89.0361 324.388 89.9483L323.924 98.04L332.464 97.3571L342.257 97.0144C342.573 97.0056 342.888 97.0616 343.182 97.1791C343.476 97.2965 343.742 97.4729 343.965 97.6973C344.419 98.2668 344.762 98.8364 344.762 99.4059V102.138H329.617C324.38 102.48 320.293 107.147 320.736 112.386V116.94C320.824 118.197 321.16 119.424 321.723 120.55C322.286 121.677 323.066 122.682 324.018 123.507C324.97 124.332 326.075 124.961 327.271 125.358C328.466 125.755 329.729 125.912 330.985 125.821H333.374C335.318 125.823 337.247 125.477 339.069 124.797C341.458 124.228 343.623 123.089 345.672 121.723L346.47 125.138H356.943V97.4705C356.611 92.2314 351.941 88.2473 346.705 88.58ZM345.11 115.111C342.453 115.926 339.691 116.351 336.912 116.371V116.6H335.203C334.889 116.6 334.579 116.538 334.289 116.418C333.999 116.298 333.735 116.121 333.513 115.899C333.291 115.677 333.116 115.413 332.996 115.123C332.876 114.833 332.814 114.522 332.814 114.208V113.528C332.806 113.212 332.862 112.897 332.979 112.603C333.097 112.309 333.273 112.043 333.497 111.819C333.705 111.568 333.965 111.367 334.261 111.229C334.556 111.091 334.878 111.021 335.203 111.023H345.11V115.111Z" fill="#ED017F"/>
<path d="M321.425 134.475H316.984V139.144H321.425V134.475Z" fill="#ED017F"/>
<path d="M329.856 139.371C329.01 139.37 328.167 139.256 327.351 139.031L325.416 138.005C324.937 137.552 324.55 137.01 324.277 136.41C323.769 135.335 323.618 134.127 323.845 132.96C324.071 131.793 324.664 130.728 325.537 129.921L327.359 129.012C328.099 128.823 328.863 128.746 329.627 128.782L331.449 129.012L333.044 129.579V132.313H332.474L332.018 131.857C331.585 131.517 331.079 131.283 330.539 131.174L329.627 131.06C328.83 131.06 328.147 131.287 327.691 131.857C327.148 132.484 326.863 133.295 326.895 134.125C326.895 134.808 327.122 135.717 327.691 136.287C327.953 136.522 328.259 136.704 328.591 136.821C328.923 136.938 329.275 136.989 329.627 136.97L330.652 136.856L331.565 136.516L332.018 136.173L332.474 135.833H333.044V138.565L331.449 139.248L329.856 139.371Z" fill="#ED017F"/>
<path d="M345.345 134.135C345.345 132.653 344.889 131.174 343.863 130.148C342.724 129.238 341.358 128.555 339.879 128.782C338.393 128.765 336.945 129.251 335.769 130.161C334.859 131.186 334.176 132.665 334.403 134.147C334.389 135.554 334.873 136.921 335.769 138.005C336.899 138.961 338.331 139.485 339.811 139.485C341.291 139.485 342.723 138.961 343.853 138.005C344.884 136.866 345.453 135.614 345.345 134.135ZM341.817 135.614L341.361 136.526L340.678 137.096C340.453 137.273 340.167 137.355 339.882 137.322C339.539 137.322 339.085 137.322 338.856 137.096C338.516 136.98 338.287 136.866 338.173 136.639L337.604 135.727L337.49 134.248C337.405 133.715 337.444 133.169 337.604 132.653L338.173 131.63L338.856 131.174L339.768 131.06L340.557 131.169C340.717 131.171 340.875 131.215 341.014 131.294C341.153 131.374 341.27 131.488 341.353 131.625L341.81 132.648L341.923 134.13L341.817 135.614Z" fill="#ED017F"/>
<path d="M357.069 131.856V139.03H353.765V132.768L353.538 131.856L353.082 131.4L352.059 131.286L351.034 131.516L350.237 131.856V139.03H347.047V129.011H350.351V130.034L351.943 129.124C352.482 128.89 353.064 128.773 353.652 128.781C354.268 128.772 354.873 128.938 355.398 129.261C355.923 129.583 356.344 130.049 356.613 130.603C357.14 130.051 357.756 129.589 358.435 129.238C359.006 128.967 359.625 128.812 360.257 128.781C361.166 128.555 362.079 129.011 362.648 129.694C363.331 130.603 363.671 131.516 363.558 132.539V139.144H360.37V132.881L360.143 131.969C360.09 131.854 360.011 131.753 359.912 131.675C359.814 131.596 359.698 131.541 359.574 131.516L358.662 131.4L357.865 131.516L357.069 131.856Z" fill="#ED017F"/>
<path d="M160.541 80.1634C158.073 77.6844 155.122 75.7384 151.871 74.4458C148.62 73.1532 145.138 72.5416 141.641 72.6487C138.232 72.5876 134.843 73.1991 131.67 74.4481C128.497 75.6972 125.601 77.5593 123.147 79.9282C120.694 82.297 118.731 85.1261 117.372 88.2538C116.012 91.3814 115.283 94.7463 115.224 98.1561C115.224 98.4611 115.224 98.7685 115.224 99.0734C114.766 113.41 126.156 125.372 140.502 125.707H141.641C155.988 126.05 167.938 114.662 168.172 100.316V98.9499C168.273 95.4605 167.647 91.9883 166.333 88.754C165.019 85.5197 163.047 82.5942 160.541 80.1634Z" fill="#F9A024"/>
<path d="M141.642 126.277C134.583 126.4 127.762 123.729 122.664 118.845C117.566 113.961 114.605 107.26 114.426 100.202V99.0634C114.302 92.0045 116.973 85.1827 121.857 80.0847C126.741 74.9867 133.443 72.0259 140.5 71.8474H141.639C145.131 71.764 148.605 72.3693 151.862 73.6287C155.12 74.8881 158.097 76.777 160.625 79.1873C163.152 81.5977 165.18 84.4824 166.592 87.6766C168.004 90.8708 168.773 94.3119 168.855 97.8034V99.0634C168.949 102.557 168.351 106.036 167.095 109.297C165.839 112.559 163.951 115.541 161.538 118.07C159.126 120.6 156.237 122.627 153.039 124.036C149.84 125.445 146.394 126.207 142.899 126.279L141.642 126.277ZM141.642 73.2183C134.957 73.0646 128.483 75.5663 123.638 80.1757C118.794 84.785 115.973 91.1264 115.794 97.811V99.071C115.568 113.077 126.497 124.692 140.616 124.919H141.642C144.96 125.023 148.265 124.468 151.366 123.284C154.467 122.101 157.303 120.313 159.707 118.025C162.112 115.737 164.038 112.994 165.373 109.955C166.709 106.916 167.427 103.642 167.487 100.323V99.0634C167.83 85.1732 156.671 73.5585 142.791 73.3317L141.642 73.2183Z" fill="#ED017F"/>
<path d="M127.979 90.0702C128.912 89.2262 130.136 88.7748 131.394 88.8102C132.801 88.7875 134.197 89.0588 135.494 89.6065C136.902 90.1695 138.239 90.896 139.478 91.7712L140.047 91.3151C139.251 89.7199 137.998 88.4675 136.519 87.4444C134.921 86.5417 133.116 86.0701 131.28 86.076C130.306 86.1008 129.344 86.2935 128.435 86.6455C127.513 87.0115 126.723 87.6464 126.167 88.4675C125.598 89.1504 125.255 90.0627 124.907 90.859C124.662 91.7087 124.585 92.5981 124.68 93.4773H125.477C126.073 92.1849 126.924 91.0261 127.979 90.0702ZM145.173 87.5729C146.309 86.7766 147.678 86.3129 149.044 85.8643C150.183 85.5241 151.548 85.7509 152.688 86.4339C153.905 87.1934 154.984 88.1566 155.875 89.2815L156.558 89.0521C156.445 88.2558 156.216 87.2302 155.646 86.5473C155.233 85.6827 154.606 84.9383 153.824 84.3851C153.141 83.7022 152.118 83.3595 151.206 83.1251C150.232 82.8958 149.218 82.8958 148.245 83.1251C146.512 83.5462 144.924 84.4222 143.643 85.6626C142.362 86.9031 141.436 88.4629 140.959 90.1811L141.642 90.5238L145.057 87.4494L145.173 87.5729ZM157.355 105.442C156.82 106.781 156.052 108.013 155.087 109.084C154.633 109.54 154.177 110.109 153.494 110.565L151.785 111.825C149.267 113.171 146.53 114.058 143.701 114.444C140.864 114.88 137.971 114.803 135.161 114.217C133.781 113.874 132.445 113.377 131.177 112.735C129.811 112.166 128.672 111.256 127.419 110.344L127.077 110.686C128.9 113.322 131.541 115.282 134.591 116.266C137.655 117.381 140.962 117.656 144.167 117.062C147.375 116.642 150.427 115.429 153.048 113.534C155.661 111.537 157.381 108.591 157.836 105.334H157.355V105.442ZM141.186 96.8969L142.212 106.347L142.781 106.234L141.642 96.8969H141.186Z" fill="#ED017F"/>
<defs>
<filter id="filter0_d_1585_1532" x="0" y="0" width="479" height="282" filterUnits="userSpaceOnUse" color-interpolation-filters="sRGB">
<feFlood flood-opacity="0" result="BackgroundImageFix"/>
<feColorMatrix in="SourceAlpha" type="matrix" values="0 0 0 0 0 0 0 0 0 0 0 0 0 0 0 0 0 0 127 0" result="hardAlpha"/>
<feOffset dy="40"/>
<feGaussianBlur stdDeviation="40"/>
<feComposite in2="hardAlpha" operator="out"/>
<feColorMatrix type="matrix" values="0 0 0 0 0.641667 0 0 0 0 0.641667 0 0 0 0 0.641667 0 0 0 0.17 0"/>
<feBlend mode="normal" in2="BackgroundImageFix" result="effect1_dropShadow_1585_1532"/>
<feBlend mode="normal" in="SourceGraphic" in2="effect1_dropShadow_1585_1532" result="shape"/>
</filter>
</defs>
</svg>
