<svg width="57" height="57" viewBox="0 0 57 57" fill="none" xmlns="http://www.w3.org/2000/svg">
<path fill-rule="evenodd" clip-rule="evenodd" d="M28.4984 56.1004C35.8184 56.1004 42.8386 53.1925 48.0146 48.0165C53.1906 42.8405 56.0984 35.8204 56.0984 28.5004C56.0984 21.1804 53.1906 14.1602 48.0146 8.98424C42.8386 3.80824 35.8184 0.900391 28.4984 0.900391C21.1785 0.900391 14.1583 3.80824 8.98229 8.98424C3.80629 14.1602 0.898438 21.1804 0.898438 28.5004C0.898438 35.8204 3.80629 42.8405 8.98229 48.0165C14.1583 53.1925 21.1785 56.1004 28.4984 56.1004ZM26.9632 18.73C26.4436 18.3833 25.8397 18.1842 25.2158 18.1539C24.592 18.1236 23.9716 18.2633 23.4208 18.5579C22.8701 18.8526 22.4097 19.2912 22.0888 19.8271C21.7678 20.3629 21.5983 20.9758 21.5984 21.6004V35.4004C21.5983 36.025 21.7678 36.6379 22.0888 37.1737C22.4097 37.7095 22.8701 38.1482 23.4208 38.4428C23.9716 38.7375 24.592 38.8771 25.2158 38.8468C25.8397 38.8165 26.4436 38.6174 26.9632 38.2708L37.3132 31.3708C37.7857 31.0557 38.1731 30.6289 38.4411 30.1282C38.709 29.6274 38.8492 29.0683 38.8492 28.5004C38.8492 27.9325 38.709 27.3733 38.4411 26.8726C38.1731 26.3719 37.7857 25.9451 37.3132 25.63L26.9632 18.73Z" fill="#F5F5F5"/>
</svg>
