<svg width="492" height="278" viewBox="0 0 492 278" fill="none" xmlns="http://www.w3.org/2000/svg">
<g filter="url(#filter0_d_1585_1526)">
<rect x="80" y="40" width="332" height="118" rx="24" fill="white"/>
</g>
<path d="M176.496 79.8562C175.132 79.8628 173.787 80.1731 172.557 80.7647C171.57 77.792 169.889 75.0972 167.654 72.9032C162.394 67.5712 154.14 65.2976 145.567 68.676C140.758 70.5614 136.665 75.437 134.845 80.6197C132.707 79.6186 130.262 79.4926 128.032 80.2687C125.802 81.0448 123.964 82.6616 122.908 84.7744C122.317 86.0123 122.007 87.3655 122 88.7372V136.086H185.521V88.8268C185.523 87.6432 185.291 86.4711 184.837 85.378C184.383 84.285 183.717 83.2927 182.878 82.4586C182.039 81.6245 181.043 80.965 179.948 80.5183C178.852 80.0716 177.679 79.8466 176.496 79.8562ZM135.826 96.8248C134.625 96.826 133.461 96.4112 132.531 95.6509C131.602 94.8905 130.964 93.8316 130.726 92.654C130.489 91.4764 130.666 90.2528 131.228 89.1912C131.79 88.1296 132.702 87.2954 133.809 86.8305V91.1601C133.811 91.4209 133.877 91.6772 134.001 91.9066C134.144 92.273 134.41 92.578 134.754 92.7685C135.098 92.959 135.498 93.0231 135.884 92.9496C136.27 92.8762 136.619 92.6699 136.869 92.3664C137.119 92.0629 137.255 91.6814 137.254 91.288V89.8804L137.19 89.8207V87.6068C137.19 87.2826 137.19 86.9584 137.22 86.6342C138.431 86.9693 139.481 87.7329 140.172 88.7833C140.864 89.8336 141.152 91.0995 140.981 92.3458C140.811 93.5922 140.195 94.7344 139.246 95.5604C138.298 96.3865 137.083 96.8403 135.826 96.8376V96.8248ZM137.957 82.7824L137.889 82.7312C139.773 76.0982 145.49 70.9623 152.64 70.5102H153.612C157.255 70.5073 160.798 71.7058 163.693 73.9203C166.587 76.1348 168.672 79.242 169.624 82.7611L153.808 94.9522L137.957 82.7824ZM172.195 96.8248C170.996 96.8237 169.834 96.4079 168.907 95.6478C167.979 94.8877 167.343 93.8302 167.106 92.6544C166.868 91.4786 167.045 90.2569 167.605 89.1963C168.165 88.1356 169.074 87.3013 170.178 86.8347V91.2326C170.236 91.6393 170.439 92.0115 170.749 92.2807C171.059 92.5499 171.456 92.6981 171.867 92.6981C172.277 92.6981 172.674 92.5499 172.984 92.2807C173.294 92.0115 173.497 91.6393 173.555 91.2326V87.0096V86.6087C174.787 86.9235 175.862 87.6798 176.574 88.7343C177.287 89.7887 177.588 91.068 177.421 92.3298C177.254 93.5917 176.63 94.7483 175.668 95.5807C174.705 96.4131 173.471 96.8633 172.199 96.8462L172.195 96.8248ZM366.208 111.635C365.131 112.308 364.002 112.894 362.832 113.388C361.706 113.887 360.49 114.153 359.259 114.169C358.853 114.176 358.451 114.087 358.087 113.909C357.684 113.765 357.342 113.49 357.115 113.128C356.774 112.686 356.53 112.178 356.399 111.635C356.196 110.894 356.109 110.125 356.138 109.357C356.15 108.682 356.216 108.009 356.335 107.344C356.463 106.562 356.657 105.521 356.919 104.221C357.179 102.989 357.375 101.948 357.503 101.167C357.617 100.566 357.683 99.9572 357.699 99.3458C357.697 98.8308 357.587 98.322 357.375 97.8528C357.206 97.4082 356.909 97.0237 356.522 96.7481C356.161 96.4331 355.743 96.1899 355.29 96.0314C354.838 95.845 354.351 95.7564 353.862 95.7712C352.543 95.7482 351.249 96.1341 350.157 96.876C349.066 97.6548 348.101 98.5972 347.297 99.67C346.346 100.965 345.541 102.362 344.896 103.833C344.116 105.54 343.464 106.819 342.944 107.864H342.492C342.442 106.346 342.484 104.826 342.62 103.313C342.752 101.555 342.816 100.19 342.816 99.2818C342.833 98.6526 342.811 98.023 342.752 97.3964C342.742 97.0256 342.629 96.6649 342.424 96.3556C342.321 96.2248 342.192 96.117 342.045 96.0391C341.899 95.9612 341.737 95.915 341.571 95.9035C341.055 95.8404 340.535 95.8176 340.015 95.8352C339.515 95.8189 339.015 95.8417 338.519 95.9035C338.167 95.9517 337.832 96.0849 337.542 96.2916C337.258 96.5045 337.016 96.7693 336.831 97.0722C336.587 97.5046 336.391 97.9623 336.246 98.4372C335.856 99.5 335.53 100.585 335.27 101.688C334.946 102.987 334.557 104.612 334.102 106.563C333.646 108.513 333.249 110.402 332.998 112.109C332.67 113.866 332.478 115.555 332.218 117.18C332.218 117.441 332.154 117.637 332.154 117.897C331.634 118.349 331.045 118.75 330.449 119.177C328.999 120.25 327.481 121.227 325.904 122.103C324.296 122.98 322.63 123.744 320.916 124.389C319.356 124.956 317.712 125.259 316.052 125.285C315.594 125.281 315.137 125.237 314.688 125.153C314.246 125.064 313.825 124.888 313.451 124.637C313.017 124.344 312.624 123.994 312.283 123.596C311.848 123.06 311.457 122.489 311.115 121.89C313.294 121.317 315.391 120.466 317.352 119.356C320.995 117.377 323.977 114.371 325.925 110.709C326.965 108.76 327.486 107.071 327.486 105.51C327.504 104.147 327.238 102.796 326.705 101.543C326.224 100.402 325.496 99.3822 324.574 98.5567C323.655 97.7004 322.573 97.0375 321.394 96.6073C320.105 96.1283 318.74 95.887 317.365 95.8949C315.718 95.8825 314.085 96.1911 312.556 96.8035C311.124 97.4221 309.806 98.2788 308.659 99.3373C307.489 100.415 306.461 101.64 305.603 102.98C304.711 104.353 303.984 105.826 303.437 107.369C302.849 108.862 302.329 110.62 301.732 112.569C301.256 114.22 300.994 115.924 300.952 117.641C300.97 118.815 301.057 119.988 301.212 121.152C301.148 121.216 301.084 121.216 301.02 121.28C300.304 121.736 299.587 122.188 298.807 122.645C298.092 123.073 297.355 123.463 296.599 123.813C295.887 124.142 295.171 124.466 294.587 124.667C294.035 124.85 293.462 124.959 292.881 124.991C292.743 124.976 292.61 124.927 292.496 124.847C292.382 124.767 292.29 124.659 292.229 124.534C291.962 124.175 291.744 123.782 291.581 123.366C291.367 122.81 291.193 122.24 291.061 121.659C290.93 121.016 290.865 120.362 290.865 119.706V119.185C290.942 118.66 291.05 118.14 291.189 117.628C291.321 117.108 291.449 116.587 291.581 116.067C291.713 115.547 291.841 115.158 291.969 114.702C292.078 114.347 292.209 114 292.361 113.661C293.529 111.319 294.83 108.969 296.258 106.512C297.686 104.055 299.05 101.568 300.414 99.0984C301.779 96.5646 303.147 94.0308 304.379 91.4928C305.655 89.0278 306.798 86.4961 307.802 83.9085C308.758 81.4309 309.538 78.8895 310.139 76.3029C310.703 73.8735 310.989 71.3877 310.991 68.8935C311.005 67.933 310.918 66.9736 310.731 66.0313C310.541 65.1447 310.239 64.286 309.832 63.4762C309.38 62.7317 308.755 62.107 308.011 61.6547C307.112 61.1822 306.102 60.9584 305.087 61.0064C303.382 61.0152 301.715 61.511 300.282 62.4354C298.571 63.4641 297.035 64.7602 295.733 66.2744C294.168 68.0678 292.776 70.006 291.577 72.0629C290.925 73.1677 290.277 74.2725 289.692 75.4412C290.149 73.2824 290.388 71.0831 290.404 68.8765C290.418 67.9159 290.331 66.9566 290.144 66.0142C289.95 65.1346 289.645 64.2832 289.236 63.4804C288.784 62.736 288.16 62.1113 287.416 61.659C286.516 61.1865 285.507 60.9626 284.491 61.0106C282.787 61.0195 281.12 61.5153 279.687 62.4396C277.976 63.4684 276.44 64.7644 275.138 66.2787C273.573 68.0713 272.181 70.008 270.981 72.0629C269.625 74.3501 268.41 76.7176 267.341 79.1523C265.968 82.4229 264.84 85.7905 263.964 89.2278C262.86 93.4507 262.259 95.5323 262.259 95.5323C262.259 95.5323 261.871 97.614 261.155 101.837C260.438 106.06 260.051 109.379 260.051 111.917C260.053 114.265 260.227 116.61 260.571 118.934C260.452 119.005 260.343 119.093 260.247 119.194C258.793 120.265 257.271 121.24 255.689 122.111C254.077 122.986 252.406 123.747 250.689 124.389C249.126 124.956 247.481 125.258 245.82 125.285C245.362 125.281 244.906 125.237 244.456 125.153C244.014 125.064 243.593 124.889 243.219 124.637C242.784 124.345 242.391 123.995 242.051 123.596C241.615 123.06 241.222 122.49 240.879 121.89C243.06 121.317 245.157 120.466 247.12 119.356C250.759 117.384 253.738 114.386 255.689 110.735C256.729 108.786 257.25 107.096 257.25 105.535C257.268 104.173 257.002 102.822 256.469 101.568C255.987 100.428 255.259 99.409 254.338 98.5823C253.418 97.7247 252.335 97.0616 251.153 96.6329C249.865 96.1555 248.502 95.9142 247.129 95.9205C245.482 95.9081 243.849 96.2167 242.32 96.8291C240.886 97.4477 239.567 98.3043 238.419 99.3629C237.25 100.441 236.224 101.665 235.367 103.006C234.49 104.37 233.774 105.831 233.235 107.361C232.651 108.854 232.131 110.611 231.53 112.561C231.054 114.211 230.792 115.916 230.75 117.633C230.75 118.486 230.814 119.339 230.882 120.166L228.929 121.143C227.761 121.664 226.657 122.18 225.617 122.7C224.579 123.19 223.581 123.76 222.633 124.406C222.633 122.781 222.696 121.088 222.829 119.463C222.977 118.186 222.955 116.895 222.765 115.623C222.569 114.715 222.372 113.87 222.176 113.154C221.98 112.437 221.788 111.789 221.592 111.14C221.396 110.492 221.268 109.839 221.14 109.187C221.001 108.459 220.935 107.718 220.944 106.977C221.164 106.497 221.472 106.063 221.852 105.697C222.372 105.109 222.957 104.46 223.558 103.744C224.159 103.027 224.666 102.315 225.182 101.611C225.602 100.995 225.849 100.278 225.898 99.5335C225.905 99.1641 225.884 98.7948 225.834 98.4287C225.758 97.9819 225.58 97.5587 225.314 97.1917C224.928 96.7514 224.437 96.4167 223.886 96.2191C222.963 95.9189 221.995 95.786 221.025 95.8267C220.342 95.83 219.663 95.9394 219.013 96.1509C218.434 96.3561 217.887 96.6434 217.389 97.004C216.877 97.3232 216.417 97.7188 216.025 98.177C215.632 98.6292 215.244 99.0856 214.92 99.542C213.296 101.619 211.936 103.313 210.892 104.742C209.852 106.107 209.007 107.276 208.291 108.252C207.575 109.229 206.927 110.074 206.407 110.722C205.887 111.439 205.175 112.347 204.275 113.452C203.376 114.557 202.459 115.534 201.611 116.378C200.762 117.223 199.535 118.264 198.102 119.497C197.809 119.75 197.492 119.974 197.156 120.166C196.713 120.497 196.301 120.867 195.924 121.271C195.504 121.707 195.133 122.186 194.815 122.7C194.5 123.231 194.343 123.841 194.363 124.458C194.326 125.012 194.415 125.568 194.623 126.083C194.745 126.411 194.946 126.704 195.207 126.936C195.474 127.12 195.793 127.211 196.116 127.196C196.508 127.196 196.832 127.26 197.288 127.26C197.634 127.269 197.981 127.247 198.324 127.196C198.716 127.132 199.04 127.132 199.364 127.064C199.464 128.262 199.843 129.42 200.468 130.446C201.087 131.377 201.909 132.155 202.873 132.72C203.953 133.312 205.113 133.743 206.317 134C207.709 134.268 209.124 134.4 210.542 134.392C212.789 134.366 215.029 134.126 217.231 133.676C219.589 133.207 221.912 132.577 224.184 131.79C226.429 131.026 228.621 130.114 230.745 129.06C231.64 128.636 232.508 128.159 233.346 127.631C233.65 128.154 233.994 128.653 234.373 129.124C235.577 130.639 237.109 131.862 238.854 132.699C240.824 133.616 242.983 134.054 245.155 133.978C246.69 133.98 248.221 133.816 249.721 133.488C251.211 133.14 252.667 132.662 254.074 132.059C255.438 131.475 256.802 130.779 258.102 130.041C259.403 129.303 260.571 128.484 261.675 127.704C261.999 127.443 262.327 127.183 262.715 126.923C262.779 127.119 262.847 127.247 262.911 127.443C263.819 129.457 264.795 131.082 266.028 132.255C267.26 133.428 268.496 134.072 269.864 134.072C270.826 134.058 271.784 133.949 272.725 133.748C273.765 133.488 274.805 133.228 275.91 132.84C277.015 132.439 278.099 131.984 279.158 131.475C280.198 130.954 281.234 130.498 282.275 129.977C282.927 129.653 283.639 129.265 284.291 128.872C284.935 130.14 285.767 131.302 286.759 132.319C287.928 133.488 289.228 134.141 290.596 134.141C291.558 134.124 292.516 134.014 293.457 133.812C294.493 133.552 295.533 133.296 296.637 132.903C297.743 132.505 298.827 132.049 299.886 131.538C300.926 131.018 301.966 130.562 303.006 130.046L304.759 129.069C304.827 129.133 304.827 129.197 304.891 129.265C306.098 130.777 307.629 131.998 309.371 132.84C311.344 133.754 313.504 134.193 315.677 134.119C317.206 134.11 318.729 133.935 320.221 133.599C321.712 133.251 323.168 132.772 324.574 132.166C325.938 131.581 327.307 130.886 328.603 130.152C329.775 129.436 330.879 128.723 331.851 128.019C331.851 128.412 331.919 128.736 331.919 129.124C332.009 130.025 332.25 130.905 332.631 131.726C332.941 132.466 333.461 133.098 334.128 133.543C334.884 134.019 335.769 134.247 336.66 134.196C337.108 134.211 337.553 134.122 337.96 133.936C338.372 133.713 338.745 133.425 339.064 133.083C339.458 132.585 339.786 132.039 340.041 131.457C340.365 130.805 340.689 129.96 341.077 128.988L347.966 109.792H348.55C348.746 111.418 349.006 112.979 349.33 114.604C349.633 116.104 350.159 117.551 350.891 118.895C351.554 120.129 352.514 121.178 353.683 121.949C354.851 122.731 356.414 123.121 358.372 123.118C359.451 123.132 360.526 122.978 361.557 122.662C362.577 122.341 363.574 121.95 364.541 121.493C365.479 121.048 366.39 120.55 367.27 120C368.122 119.48 368.894 118.959 369.542 118.567L370.13 109.609C368.549 110.087 367.385 110.931 366.208 111.635ZM213.791 124.257C213.638 124.945 213.374 125.603 213.011 126.206C212.617 126.789 212.08 127.259 211.45 127.571C210.689 127.963 209.836 128.143 208.982 128.092C208.206 128.107 207.441 127.904 206.773 127.507C206.154 127.145 205.581 126.708 205.068 126.206L203.789 124.927C203.532 124.603 203.159 124.393 202.749 124.342L213.407 113.162C213.539 113.55 213.667 114.071 213.863 114.659C214.053 115.47 214.075 116.31 213.927 117.129C213.813 118.035 213.792 118.949 213.863 119.859C213.927 120.572 213.991 121.288 213.991 121.992C214.016 122.752 213.949 123.513 213.791 124.257ZM240.035 113.529C240.139 112.506 240.38 111.502 240.751 110.543C241.207 109.374 241.531 108.333 241.855 107.489C242.145 106.677 242.586 105.927 243.156 105.279C243.684 104.624 244.349 104.091 245.104 103.718C246 103.307 246.979 103.107 247.964 103.134C248.612 103.134 249.132 103.526 249.52 104.238C250.002 105.089 250.229 106.061 250.173 107.037C250.173 107.813 249.717 108.854 248.808 110.091C248.031 111.182 247.114 112.166 246.08 113.017C245.145 113.738 244.117 114.327 243.023 114.77C242.063 115.21 241.026 115.453 239.971 115.487C239.971 114.962 239.971 114.31 240.035 113.529ZM270.964 94.2228C271.676 90.7804 272 89.023 272 89.023C272 89.023 272.589 87.1376 273.706 83.4308C274.822 79.7239 275.782 76.9982 276.626 75.3261C277.284 73.9087 278.115 72.5778 279.098 71.3633C279.951 70.3865 280.654 69.9343 281.371 69.9343C281.567 69.9343 281.695 70.1945 281.695 70.7107C281.753 71.3602 281.774 72.0124 281.759 72.6643C281.46 75.2455 280.916 77.7922 280.134 80.2699C279.285 83.0508 278.289 85.7847 277.15 88.4599C275.982 91.1899 274.749 93.8545 273.45 96.4537C272.149 99.0558 270.913 101.398 269.745 103.411C269.943 100.324 270.351 97.2544 270.964 94.2228ZM278.237 122.568C277.523 122.997 276.785 123.387 276.029 123.737C275.317 124.061 274.601 124.389 274.017 124.59C273.466 124.776 272.892 124.885 272.311 124.914C272.173 124.9 272.041 124.851 271.927 124.772C271.813 124.693 271.721 124.586 271.659 124.462C271.4 124.098 271.191 123.7 271.037 123.28C270.822 122.725 270.648 122.155 270.517 121.574C270.386 120.932 270.32 120.279 270.321 119.625V119.104C270.398 118.578 270.506 118.057 270.645 117.543L271.037 115.986C271.165 115.466 271.297 115.073 271.425 114.621C271.533 114.266 271.664 113.919 271.817 113.58C272.985 111.238 274.285 108.888 275.713 106.427C277.142 104.025 278.506 101.487 279.87 99.0174C281.234 96.4836 282.599 93.9455 283.835 91.4117C283.899 91.2155 284.031 91.0876 284.095 90.8913C283.315 93.8773 282.859 95.4428 282.859 95.4428C282.859 95.4428 282.471 97.5201 281.754 101.747C281.038 105.975 280.65 109.289 280.65 111.823C280.651 114.633 280.891 117.439 281.366 120.209C281.381 120.318 281.402 120.427 281.43 120.533C281.106 120.729 280.782 120.99 280.458 121.186C279.734 121.655 279.017 122.111 278.237 122.568ZM291.624 94.2228C292.336 90.7804 292.664 89.023 292.664 89.023C292.664 89.023 293.248 87.1376 294.369 83.4308C295.49 79.7239 296.45 76.9982 297.294 75.3261C297.951 73.9089 298.78 72.578 299.762 71.3633C300.615 70.3865 301.322 69.9343 302.034 69.9343C302.23 69.9343 302.358 70.1945 302.358 70.7107C302.42 71.3599 302.443 72.0123 302.427 72.6643C302.126 75.2451 301.582 77.7917 300.802 80.2699C299.951 83.0502 298.955 85.784 297.818 88.4599C296.647 91.1899 295.412 93.8545 294.113 96.4537C292.813 99.0558 291.581 101.398 290.409 103.411C290.608 100.324 291.014 97.2549 291.624 94.2228ZM310.335 113.529C310.437 112.506 310.678 111.501 311.051 110.543C311.503 109.374 311.827 108.333 312.155 107.489C312.439 106.678 312.873 105.929 313.434 105.279C313.964 104.623 314.63 104.091 315.387 103.718C316.281 103.306 317.259 103.106 318.243 103.134C318.895 103.134 319.411 103.526 319.803 104.238C320.284 105.09 320.509 106.061 320.451 107.037C320.451 107.813 319.999 108.854 319.087 110.091C318.312 111.184 317.395 112.168 316.359 113.017C315.425 113.737 314.399 114.327 313.306 114.77C312.347 115.204 311.311 115.443 310.258 115.474C310.258 114.962 310.335 114.31 310.335 113.529Z" fill="#122E76"/>
<defs>
<filter id="filter0_d_1585_1526" x="0" y="0" width="492" height="278" filterUnits="userSpaceOnUse" color-interpolation-filters="sRGB">
<feFlood flood-opacity="0" result="BackgroundImageFix"/>
<feColorMatrix in="SourceAlpha" type="matrix" values="0 0 0 0 0 0 0 0 0 0 0 0 0 0 0 0 0 0 127 0" result="hardAlpha"/>
<feOffset dy="40"/>
<feGaussianBlur stdDeviation="40"/>
<feComposite in2="hardAlpha" operator="out"/>
<feColorMatrix type="matrix" values="0 0 0 0 0.641667 0 0 0 0 0.641667 0 0 0 0 0.641667 0 0 0 0.17 0"/>
<feBlend mode="normal" in2="BackgroundImageFix" result="effect1_dropShadow_1585_1526"/>
<feBlend mode="normal" in="SourceGraphic" in2="effect1_dropShadow_1585_1526" result="shape"/>
</filter>
</defs>
</svg>
