<svg width="89" height="32" viewBox="0 0 89 32" fill="none" xmlns="http://www.w3.org/2000/svg">
<path d="M89 5.97956C89 12.6443 89 19.3168 89 25.9815C88.9928 26.036 88.9784 26.0905 88.9713 26.145C88.9138 26.511 88.8779 26.8769 88.7988 27.235C88.6983 27.6944 88.5618 28.1382 88.339 28.5509C88.0948 29.018 87.8146 29.4462 87.4841 29.8433C86.974 30.4506 86.3705 30.9178 85.688 31.2837C85.0342 31.6341 84.3445 31.8521 83.6189 31.9299C83.4249 31.9533 83.2309 31.9766 83.0442 32C55.3628 32 27.6814 32 0 32C0 23.2798 0 14.5596 0 5.83942C0.00718437 5.80827 0.0215531 5.76156 0.0287375 5.72263C0.057475 5.27883 0.136503 4.85061 0.265822 4.42238C0.466984 3.76058 0.747175 3.15328 1.14232 2.60827C1.41532 2.22676 1.71706 1.88418 2.05473 1.57275C2.45706 1.20681 2.88812 0.910949 3.36229 0.669586C4.2316 0.218005 5.15119 0 6.12827 0C12.0985 0 18.0759 0 24.0461 0C43.6594 0 63.2656 0 82.8789 0.00778589C83.2956 0.00778589 83.7123 0.0622871 84.1146 0.13236C84.6966 0.233577 85.2498 0.459367 85.7814 0.747445C86.507 1.14453 87.1392 1.66618 87.6565 2.34355C87.9583 2.74063 88.2241 3.17664 88.4396 3.62822C88.6983 4.16545 88.8491 4.74939 88.9282 5.34891C88.9641 5.56691 88.9784 5.76934 89 5.97956ZM25.016 15.8676C25.016 17.5883 25.016 19.2701 25.016 20.9752C25.0878 20.9752 25.1453 20.9752 25.21 20.9752C25.7847 20.9752 26.3666 20.9752 26.9414 20.9752C27.1497 20.9752 27.1497 20.9752 27.1497 21.201C27.1497 22.7426 27.1497 24.2764 27.1497 25.818C27.1497 26.0516 27.1497 26.0516 27.3581 26.0516C29.032 26.0516 30.706 26.0516 32.38 26.0516C32.5955 26.0516 32.5955 26.0516 32.5955 25.818C32.5955 24.2686 32.5955 22.7192 32.5955 21.1698C32.5955 21.0063 32.6386 20.9674 32.7823 20.9674C35.0454 20.9752 37.3156 20.9674 39.5787 20.9674C39.7799 20.9674 39.7799 20.9674 39.7799 21.1854C39.7799 22.7348 39.7799 24.2842 39.7799 25.8336C39.7799 25.9971 39.823 26.0516 39.981 26.0516C41.6765 26.0438 43.3721 26.0438 45.0604 26.0516C45.2184 26.0516 45.2615 25.9971 45.2615 25.8336C45.2615 19.2701 45.2615 12.6988 45.2615 6.13528C45.2615 5.96399 45.2113 5.92506 45.0604 5.92506C43.3792 5.93285 41.6909 5.92506 40.0098 5.92506C39.7871 5.92506 39.7871 5.92506 39.7871 6.16642C39.7871 9.32749 39.7871 12.4886 39.7871 15.6496C39.7871 15.8209 39.7439 15.8599 39.5931 15.8599C37.3372 15.8521 35.0813 15.8521 32.8254 15.8521C32.6027 15.8521 32.6027 15.8521 32.6027 15.6107C32.6027 12.4496 32.6027 9.28856 32.6027 6.12749C32.6027 5.96399 32.5668 5.90949 32.4087 5.90949C30.7491 5.91728 29.0823 5.90949 27.4227 5.91727C27.1497 5.93285 27.1497 5.87056 27.1497 6.22871C27.1497 9.37421 27.1497 12.5197 27.1497 15.6574C27.1497 15.8209 27.121 15.8754 26.9558 15.8754C26.3738 15.8599 25.7919 15.8676 25.21 15.8676C25.1525 15.8676 25.0878 15.8676 25.016 15.8676ZM62.2957 20.9752C62.3747 20.9752 62.4322 20.9752 62.4825 20.9752C63.0788 20.9752 63.6751 20.983 64.2714 20.9752C64.4223 20.9752 64.4582 21.0219 64.4582 21.1776C64.451 22.727 64.4582 24.2764 64.4582 25.8258C64.4582 26.0516 64.4582 26.0516 64.6665 26.0516C66.3189 26.0516 67.9713 26.0516 69.6237 26.0516C69.8465 26.0516 69.8465 26.0516 69.8465 25.818C69.8465 24.2764 69.8465 22.727 69.8465 21.1854C69.8465 21.0219 69.8752 20.9674 70.0404 20.9674C72.3035 20.9752 74.5594 20.9674 76.8225 20.9752C77.8067 20.9752 78.7695 20.8818 79.7106 20.5392C80.4075 20.29 81.0182 19.8929 81.5211 19.3168C81.9306 18.8418 82.2036 18.2657 82.3545 17.6506C82.4694 17.1757 82.5413 16.6774 82.5484 16.1869C82.57 14.4273 82.57 12.6599 82.5556 10.9002C82.5484 10.2073 82.491 9.52214 82.2682 8.85256C82.0599 8.25304 81.7797 7.7236 81.3558 7.27981C81.0182 6.92944 80.623 6.67251 80.192 6.47786C79.3226 6.09635 78.4102 5.93285 77.4835 5.93285C73.2016 5.91727 68.9269 5.92506 64.645 5.92506C64.5875 5.92506 64.5372 5.93285 64.4654 5.93285C64.4654 6.02628 64.4654 6.10414 64.4654 6.182C64.4654 9.34307 64.4654 12.5041 64.4654 15.6652C64.4654 15.8209 64.4295 15.8754 64.2786 15.8754C63.6823 15.8676 63.086 15.8754 62.4897 15.8676C62.3388 15.8676 62.2957 15.9144 62.2957 16.0779C62.3029 17.6428 62.2957 19.2078 62.2957 20.7805C62.2957 20.8428 62.2957 20.8973 62.2957 20.9752ZM12.1991 26.0594C13.8587 26.0594 15.5182 26.0672 17.1706 26.0594C17.5873 26.0594 18.004 26.036 18.4207 25.9971C19.3906 25.9037 20.3102 25.6467 21.1436 25.0783C21.7902 24.6346 22.2716 24.0273 22.5805 23.2798C22.8319 22.6725 22.9684 22.0185 22.9684 21.3567C22.9756 20.1265 23.0618 18.8886 22.8966 17.6584C22.7745 16.7474 22.5374 15.9144 21.9411 15.2214C21.6034 14.8243 21.2155 14.5363 20.77 14.3182C19.9007 13.8978 18.9739 13.7499 18.0328 13.7421C16.2151 13.7265 14.3975 13.7343 12.5798 13.7343C12.4361 13.7343 12.2925 13.7109 12.156 13.6642C11.9979 13.6097 11.8542 13.5007 11.8542 13.2905C11.847 12.691 11.847 12.0993 11.8542 11.4998C11.8542 11.3518 11.9189 11.2039 12.0626 11.1572C12.2278 11.1027 12.4002 11.0482 12.5655 11.0482C15.4248 11.0404 18.2914 11.0404 21.1508 11.0404C21.3663 11.0404 21.3663 11.0404 21.3663 10.8068C21.3663 9.26521 21.3663 7.71582 21.3663 6.17421C21.3663 5.94063 21.3663 5.94063 21.1436 5.94063C18.0184 5.94063 14.8932 5.94063 11.768 5.94063C11.5597 5.94063 11.3585 5.9562 11.1501 5.97178C10.2305 6.04185 9.35405 6.25985 8.53503 6.71922C7.64417 7.2253 7.0335 7.99611 6.67428 9.00049C6.48749 9.52214 6.42283 10.0827 6.42283 10.6355C6.41564 11.9436 6.40846 13.2438 6.42283 14.5518C6.43001 15.1981 6.51622 15.8365 6.78205 16.4438C7.00476 16.9421 7.28495 17.3625 7.68009 17.7129C8.16145 18.1411 8.72183 18.3981 9.31813 18.5693C10.1874 18.8185 11.0783 18.8652 11.9763 18.8652C13.5282 18.8652 15.0728 18.8652 16.6246 18.8652C16.754 18.8652 16.8833 18.8652 17.0126 18.8808C17.3287 18.9041 17.5011 19.0443 17.5083 19.2934C17.5155 19.6983 17.5155 20.0954 17.5083 20.5002C17.5011 20.7182 17.3934 20.8584 17.185 20.9051C17.0413 20.9363 16.8905 20.9674 16.7468 20.9674C13.3773 20.9674 10.015 20.9674 6.64554 20.9674C6.42283 20.9674 6.42283 20.9674 6.42283 21.2165C6.42283 22.7426 6.42283 24.2686 6.42283 25.8024C6.42283 26.0749 6.42283 26.0749 6.6671 26.0749C8.52785 26.0594 10.3599 26.0594 12.1991 26.0594ZM60.241 19.745C60.241 17.7129 60.241 15.6886 60.241 13.6564C60.241 13.4929 60.1979 13.4307 60.0398 13.4384C58.3587 13.4462 56.6703 13.4384 54.9892 13.4384C54.7593 13.4384 54.7593 13.4384 54.7593 13.672C54.7593 17.7207 54.7593 21.7616 54.7593 25.8102C54.7593 26.0516 54.7593 26.0516 54.982 26.0516C56.6631 26.0516 58.3515 26.0516 60.0326 26.0516C60.0613 26.0516 60.1045 26.0594 60.126 26.0516C60.1691 26.0282 60.2122 25.9893 60.2338 25.9426C60.2553 25.8881 60.241 25.818 60.241 25.7635C60.241 23.7547 60.241 21.7538 60.241 19.745ZM47.2803 19.745C47.2803 21.7771 47.2803 23.8015 47.2803 25.8336C47.2803 26.0594 47.2803 26.0594 47.4887 26.0594C49.1698 26.0594 50.8438 26.0594 52.5249 26.0594C52.7405 26.0594 52.7405 26.0594 52.7405 25.8336C52.7405 21.7771 52.7405 17.7207 52.7405 13.6642C52.7405 13.4462 52.7405 13.4462 52.5321 13.4462C50.851 13.4462 49.1627 13.4462 47.4815 13.4462C47.2803 13.4462 47.2803 13.4462 47.2803 13.6642C47.2803 15.6886 47.2803 17.7207 47.2803 19.745ZM57.4893 11.3752C58.3515 11.3752 59.2064 11.3752 60.0685 11.3752C60.205 11.3752 60.241 11.3285 60.241 11.1805C60.241 9.491 60.2338 7.80146 60.241 6.11192C60.241 5.9562 60.1907 5.91727 60.0542 5.91727C58.3587 5.92506 56.656 5.92506 54.9604 5.91727C54.8024 5.91727 54.7593 5.96399 54.7593 6.13528C54.7665 7.80925 54.7593 9.47543 54.7593 11.1494C54.7593 11.3674 54.7593 11.3674 54.9676 11.3674C55.8082 11.3752 56.6488 11.3752 57.4893 11.3752ZM47.2947 11.3752C47.3594 11.3752 47.4169 11.3752 47.4743 11.3752C49.1698 11.3752 50.8582 11.3752 52.5537 11.383C52.7117 11.383 52.7477 11.3363 52.7477 11.1728C52.7405 9.49878 52.7477 7.8326 52.7405 6.15864C52.7405 5.94063 52.7405 5.94063 52.5465 5.94063C50.8582 5.94063 49.1698 5.94063 47.4815 5.94063C47.424 5.94063 47.3594 5.94063 47.2947 5.94063C47.2947 7.75475 47.2947 9.55328 47.2947 11.3752Z" fill="#005FC5"/>
</svg>
