<svg width="304" height="271" viewBox="0 0 304 271" fill="none" xmlns="http://www.w3.org/2000/svg">
<g filter="url(#filter0_d_1585_1565)">
<rect x="80" y="40" width="144" height="111" rx="24" fill="white"/>
</g>
<path d="M164.301 80.0002C173.717 79.9638 179.958 86.0445 180 95.2938C180.042 104.398 173.534 111.003 164.527 111C155.407 111 149.088 104.642 149.001 95.3874C148.917 86.3877 155.235 80.0348 164.301 80.0002ZM172.601 95.4827C172.02 92.2777 171.679 89.1992 170.862 86.249C170.07 83.3629 168.081 81.4285 164.873 81.2586C161.476 81.0853 159.374 83.0128 158.309 85.9387C155.969 92.3713 156.026 98.8906 158.389 105.311C159.387 108.024 161.344 109.736 164.463 109.757C167.742 109.78 169.811 107.909 170.676 105.077C171.643 101.971 171.998 98.6756 172.601 95.4827Z" fill="#FE0606"/>
<path d="M96.0707 111V100.342L96.4117 100.282C96.9913 101.767 97.4141 103.345 98.1813 104.72C99.8673 107.741 102.252 110.237 105.841 109.917C107.546 109.765 109.619 108.434 110.63 106.98C111.985 105.032 110.764 102.852 108.998 101.592C106.596 99.8799 103.95 98.5347 101.436 96.9849C98.7558 95.3318 96.4645 93.3114 96.0673 89.8671C95.3326 83.5383 100.72 78.8083 106.998 80.2654C108.175 80.5383 109.274 81.2363 110.452 81.3902C111.475 81.5231 112.542 81.1575 113.891 80.9704V90.5773C113.301 89.0852 112.955 88.2123 112.612 87.3394C111.398 84.252 109.339 82.0392 106.102 81.3919C103.834 80.9371 101.816 81.6456 100.795 84.0018C99.8213 86.2601 101.044 87.9324 102.707 89.059C105.916 91.2228 109.499 92.8514 112.527 95.2374C118.073 99.6105 116.769 108.248 110.099 110.431C107.447 111.306 104.172 110.724 101.303 110.159C99.3218 109.767 97.6374 108.84 96.0707 111Z" fill="#FE0909"/>
<path d="M202.24 110H187.916C191.623 109.752 191.62 107.229 191.587 104.467C191.499 97.0756 191.558 89.684 191.558 82.323C185.997 81.6282 184.725 82.4271 182 87.8608V84.5337V81H208V88.1083C203.923 81.7921 203.923 81.7921 198.487 82.1967V96.3655C198.487 99.2078 198.498 102.052 198.487 104.901C198.472 107.499 198.621 109.956 202.24 110Z" fill="#FE0303"/>
<path d="M119 81.0002H133.486C129.716 80.9746 129.577 83.4734 129.599 86.2295C129.653 92.5224 129.689 98.8153 129.584 105.106C129.536 107.943 130.566 108.824 133.527 109.051C139.618 109.516 142.863 106.664 144.329 100.977L145 101.336L144.424 110H119.122C123.189 109.894 122.721 106.985 122.707 104.293C122.678 98.3057 122.632 92.3162 122.728 86.3301C122.773 83.5688 122.633 81.1553 119 81.0002Z" fill="#FE0202"/>
<defs>
<filter id="filter0_d_1585_1565" x="0" y="0" width="304" height="271" filterUnits="userSpaceOnUse" color-interpolation-filters="sRGB">
<feFlood flood-opacity="0" result="BackgroundImageFix"/>
<feColorMatrix in="SourceAlpha" type="matrix" values="0 0 0 0 0 0 0 0 0 0 0 0 0 0 0 0 0 0 127 0" result="hardAlpha"/>
<feOffset dy="40"/>
<feGaussianBlur stdDeviation="40"/>
<feComposite in2="hardAlpha" operator="out"/>
<feColorMatrix type="matrix" values="0 0 0 0 0.641667 0 0 0 0 0.641667 0 0 0 0 0.641667 0 0 0 0.17 0"/>
<feBlend mode="normal" in2="BackgroundImageFix" result="effect1_dropShadow_1585_1565"/>
<feBlend mode="normal" in="SourceGraphic" in2="effect1_dropShadow_1585_1565" result="shape"/>
</filter>
</defs>
</svg>
