<svg width="40" height="40" viewBox="0 0 40 40" fill="none" xmlns="http://www.w3.org/2000/svg">
<path d="M14.9974 31.6667C14.9974 32.9167 14.6474 34.1 14.0307 35.1C12.8807 37.0333 10.7641 38.3333 8.33073 38.3333C5.8974 38.3333 3.78073 37.0333 2.63073 35.1C2.01407 34.1 1.66406 32.9167 1.66406 31.6667C1.66406 27.9833 4.6474 25 8.33073 25C12.0141 25 14.9974 27.9833 14.9974 31.6667Z" stroke="#292D32" stroke-width="1.5" stroke-miterlimit="10" stroke-linecap="round" stroke-linejoin="round"/>
<path d="M5.73438 31.6665L7.38438 33.3165L10.9344 30.0332" stroke="#292D32" stroke-width="1.5" stroke-linecap="round" stroke-linejoin="round"/>
<path d="M29.587 11.7506C29.187 11.6839 28.7703 11.6673 28.337 11.6673H11.6703C11.2036 11.6673 10.7536 11.7006 10.3203 11.7673C10.5536 11.3006 10.887 10.8673 11.287 10.4673L16.7036 5.03398C18.987 2.76732 22.687 2.76732 24.9703 5.03398L27.887 7.98392C28.9536 9.03392 29.5203 10.3673 29.587 11.7506Z" stroke="#292D32" stroke-width="1.5" stroke-linecap="round" stroke-linejoin="round"/>
<path d="M36.6693 19.9993V28.3327C36.6693 33.3327 33.3359 36.666 28.3359 36.666H12.7193C13.2359 36.2327 13.6859 35.6993 14.0359 35.0993C14.6526 34.0993 15.0026 32.916 15.0026 31.666C15.0026 27.9827 12.0193 24.9993 8.33594 24.9993C6.33594 24.9993 4.5526 25.8827 3.33594 27.266V19.9993C3.33594 15.466 6.06927 12.2993 10.3193 11.766C10.7526 11.6993 11.2026 11.666 11.6693 11.666H28.3359C28.7693 11.666 29.1859 11.6827 29.5859 11.7493C33.8859 12.2493 36.6693 15.4327 36.6693 19.9993Z" stroke="#292D32" stroke-width="1.5" stroke-linecap="round" stroke-linejoin="round"/>
<path d="M36.6693 20.834H31.6693C29.8359 20.834 28.3359 22.334 28.3359 24.1673C28.3359 26.0007 29.8359 27.5007 31.6693 27.5007H36.6693" stroke="#292D32" stroke-width="1.5" stroke-linecap="round" stroke-linejoin="round"/>
</svg>
